<?xml version="1.0" encoding="UTF-8"?>
<svg width="268px" height="85px" viewBox="0 0 268 85" version="1.1" xmlns="http://www.w3.org/2000/svg" xmlns:xlink="http://www.w3.org/1999/xlink">
    <title>Group 8</title>
    <g id="Page-1" stroke="none" stroke-width="1" fill="none" fill-rule="evenodd">
        <g id="Option-1" transform="translate(-1444.000000, -47.000000)">
            <g id="Logo" transform="translate(56.000000, 47.000000)">
                <g id="Group-8" transform="translate(1388.000000, 0.000000)">
                    <path d="M24.4832924,0 L257.665797,0 C262.084075,1.33992302e-14 265.665797,3.581722 265.665797,8 C265.665797,8.67627935 265.580044,9.34982945 265.410591,10.004535 L247.551767,79.004535 C246.63814,82.5344597 243.453215,85 239.806973,85 L9.87152767,85 C5.45324967,85 1.87152767,81.418278 1.87152767,77 C1.87152767,76.4430099 1.92969686,75.8875426 2.04508875,75.3426365 L16.6568535,6.34263646 C17.4398622,2.6450951 20.7037534,4.24700373e-15 24.4832924,0 Z" id="Rectangle" fill="#1A98FE"></path>
                    <path d="M210.160693,42.274528 L214.098493,43.9608837 C214.544281,43.061494 215.021027,42.1745958 215.528731,41.3001892 C216.036435,40.4257825 216.575096,39.5888504 217.144715,38.7893929 L214.20994,38.1897998 L210.160693,42.274528 Z M215.881647,45.3099682 L220.82247,50.2940862 C222.234134,49.6445269 223.559117,48.907527 224.797419,48.0830865 C226.03572,47.2586459 227.038745,46.4591884 227.806492,45.6847139 C229.81254,43.6610871 231.286119,41.5874942 232.227228,39.4639352 C233.168338,37.3403762 233.676041,34.9420036 233.750339,32.2688176 C231.100374,32.3437667 228.722835,32.8559192 226.617722,33.805275 C224.512609,34.7546308 222.457029,36.2411221 220.45098,38.2647489 C219.683233,39.0392234 218.89072,40.0510368 218.073441,41.3001892 C217.256162,42.5493415 216.525564,43.8859345 215.881647,45.3099682 Z M224.388779,41.7124094 C223.893458,41.2127485 223.645798,40.5944181 223.645798,39.8574182 C223.645798,39.1204183 223.893458,38.5020879 224.388779,38.0024269 C224.8841,37.502766 225.497059,37.2529355 226.227657,37.2529355 C226.958255,37.2529355 227.571214,37.502766 228.066535,38.0024269 C228.561856,38.5020879 228.809516,39.1204183 228.809516,39.8574182 C228.809516,40.5944181 228.561856,41.2127485 228.066535,41.7124094 C227.571214,42.2120704 226.958255,42.4619009 226.227657,42.4619009 C225.497059,42.4619009 224.8841,42.2120704 224.388779,41.7124094 Z M223.831543,56.0651701 L227.88079,51.9804418 L227.286405,49.0199507 C226.493892,49.5945608 225.66423,50.1379421 224.797419,50.6500946 C223.930607,51.162247 223.051413,51.6431707 222.159836,52.0928656 L223.831543,56.0651701 Z M235.942133,30.0578179 C236.165028,33.4555123 235.744005,36.5534102 234.679066,39.3515115 C233.614126,42.1496128 231.855738,44.7853242 229.403901,47.2586459 L229.329603,47.3335951 L229.255304,47.4085442 L230.072584,51.530747 C230.146882,51.9054927 230.128307,52.2677469 230.01686,52.6175095 C229.905413,52.9672722 229.713476,53.2795603 229.44105,53.5543738 L223.088562,60 L219.930893,52.580035 L213.615555,46.2093579 L206.260043,43.0240194 L212.64968,36.6158678 C212.922106,36.3410543 213.231681,36.1474357 213.578406,36.035012 C213.92513,35.9225882 214.284238,35.903851 214.655728,35.9788001 L218.742124,36.8032407 C218.76689,36.7782576 218.791656,36.7595203 218.816422,36.7470288 C218.841188,36.7345373 218.865954,36.7158 218.89072,36.6908169 C221.342557,34.2174953 223.955374,32.4374532 226.729169,31.3506906 C229.502965,30.263928 232.573953,29.8329705 235.942133,30.0578179 L235.942133,30.0578179 Z M208.74903,50.743781 C209.615841,49.8693744 210.674589,49.4259253 211.925273,49.4134337 C213.175958,49.4009422 214.234706,49.8318998 215.101517,50.7063064 C215.968328,51.5807131 216.395542,52.6487384 216.383159,53.9103822 C216.370776,55.1720261 215.931179,56.2400514 215.064368,57.114458 C214.420451,57.7640173 213.423618,58.3011528 212.073869,58.7258646 C210.724121,59.1505764 208.699498,59.5503052 206,59.9250509 C206.37149,57.2018987 206.761555,55.1532888 207.170195,53.7792212 C207.578835,52.4051536 208.105113,51.3933402 208.74903,50.743781 L208.74903,50.743781 Z M210.30929,52.3551876 C209.962565,52.7299333 209.65299,53.3170349 209.380563,54.1164924 C209.108137,54.9159499 208.87286,55.9402548 208.674732,57.1894072 C209.913033,56.9895428 210.92844,56.7522039 211.720953,56.4773903 C212.513467,56.2025768 213.095468,55.8902887 213.466959,55.5405261 C213.937513,55.1158143 214.178982,54.5849245 214.191365,53.9478568 C214.203748,53.3107891 213.987045,52.7549163 213.541257,52.2802384 C213.070702,51.8305436 212.519658,51.6119419 211.888124,51.6244334 C211.25659,51.6369249 210.730312,51.8805097 210.30929,52.3551876 Z" id="Shape" fill="#FFFFFF" fill-rule="nonzero"></path>
                </g>
            </g>
        </g>
    </g>
</svg>