<?xml version="1.0" encoding="UTF-8"?>
<svg width="88px" height="88px" viewBox="0 0 88 88" version="1.1" xmlns="http://www.w3.org/2000/svg" xmlns:xlink="http://www.w3.org/1999/xlink">
    <title>Group 6</title>
    <g id="Page-1" stroke="none" stroke-width="1" fill="none" fill-rule="evenodd">
        <g id="Option-1" transform="translate(-457.000000, -942.000000)">
            <g id="Hero" transform="translate(0.000000, 180.000000)">
                <g id="Group" transform="translate(281.000000, 464.000000)">
                    <g id="Group-6" transform="translate(176.000000, 298.000000)">
                        <circle id="Oval" fill="#1A98FE" cx="44" cy="44" r="44"></circle>
                        <path d="M56.4949007,38.9148936 L49.3404255,31.7604185 L52.5714788,28.5293652 C53.0946017,28.0062423 53.7408124,27.7446809 54.5101108,27.7446809 C55.2794092,27.7446809 55.9256198,28.0062423 56.4487427,28.5293652 L59.7259539,31.8065764 C60.2490768,32.3296993 60.5106383,32.97591 60.5106383,33.7452084 C60.5106383,34.5145068 60.2490768,35.1607174 59.7259539,35.6838403 L56.4949007,38.9148936 Z M28.2193548,60.8242894 L28.2193548,53.7700258 L36.9806452,44.997416 L27,34.9586563 L34.8580645,27 L44.9290323,37.0839793 L49.716129,32.2906977 L56.716129,39.2997416 L51.9290323,44.0930233 L62,54.1770026 L54.0967742,62 L44.0709677,52.0064599 L35.2645161,60.8242894 L28.2193548,60.8242894 Z M38.6519022,42.6382979 L42.6382979,38.6519022 L39.4048881,35.4184924 L37.2788104,37.5445701 L35.4184924,35.6842522 L37.5445701,33.5581745 L34.7097999,30.7234043 L30.7234043,34.7097999 L38.6519022,42.6382979 Z M53.5455193,57.5319149 L57.5319149,53.5455193 L54.6971447,50.710749 L52.571067,52.8368267 L50.710749,50.9765087 L52.8368267,48.8504311 L49.6034169,45.6170213 L45.6170213,49.6034169 L53.5455193,57.5319149 Z M30.7234043,57.5319149 L33.8403159,57.5319149 L52.3191489,39.0530818 L49.2022373,35.9361702 L30.7234043,54.4150033 L30.7234043,57.5319149 Z" id="Shape" fill="#FFFFFF" fill-rule="nonzero"></path>
                    </g>
                </g>
            </g>
        </g>
    </g>
</svg>