<?xml version="1.0" encoding="UTF-8"?>
<svg width="88px" height="88px" viewBox="0 0 88 88" version="1.1" xmlns="http://www.w3.org/2000/svg" xmlns:xlink="http://www.w3.org/1999/xlink">
    <title>Group 7</title>
    <g id="Page-1" stroke="none" stroke-width="1" fill="none" fill-rule="evenodd">
        <g id="Option-1" transform="translate(-457.000000, -1052.000000)">
            <g id="Hero" transform="translate(0.000000, 180.000000)">
                <g id="Group" transform="translate(281.000000, 464.000000)">
                    <g id="Group-7" transform="translate(176.000000, 408.000000)">
                        <circle id="Oval" fill="#1A98FE" cx="44" cy="44" r="44"></circle>
                        <path d="M57.6128247,61 L46,49.2188735 L48.6371753,46.5434783 L60.25,58.3246047 L57.6128247,61 Z M29.2267206,61 L26.4574899,58.2330097 L40.5465587,44.1553398 L35.3481781,38.961165 L34.2307692,40.0776699 L32.0931174,37.9417476 L32.0931174,42.0679612 L30.9271255,43.2330097 L25,37.3106796 L26.1659919,36.1456311 L30.3441296,36.1456311 L28.0121457,33.815534 L34.3765182,27.4563107 C34.9271255,26.9061489 35.5263158,26.5339806 36.1740891,26.3398058 C36.8218623,26.1456311 37.534413,26.0485437 38.3117409,26.0485437 C39.0890688,26.0485437 39.8016194,26.1860841 40.4493927,26.461165 C41.097166,26.736246 41.6963563,27.1488673 42.2469636,27.6990291 L37.048583,32.8932039 L39.3805668,35.223301 L38.2145749,36.3883495 L43.2672065,41.4368932 L49.194332,35.5145631 C48.9352227,35.0938511 48.7327935,34.6084142 48.5870445,34.0582524 C48.4412955,33.5080906 48.3684211,32.9255663 48.3684211,32.3106796 C48.3684211,30.5954693 48.9919028,29.1148867 50.2388664,27.868932 C51.48583,26.6229773 52.9676113,26 54.6842105,26 C55.1700405,26 55.582996,26.0485437 55.9230769,26.1456311 C56.2631579,26.2427184 56.5465587,26.3721683 56.7732794,26.5339806 L52.6437247,30.6601942 L56.2874494,34.3009709 L60.417004,30.1747573 C60.5789474,30.433657 60.7165992,30.7491909 60.8299595,31.1213592 C60.9433198,31.4935275 61,31.9223301 61,32.407767 C61,34.1229773 60.3765182,35.6035599 59.1295547,36.8495146 C57.8825911,38.0954693 56.4008097,38.7184466 54.6842105,38.7184466 C54.1012146,38.7184466 53.5991903,38.6779935 53.1781377,38.5970874 C52.757085,38.5161812 52.3684211,38.394822 52.0121457,38.2330097 L29.2267206,61 Z" id="Shape" fill="#FFFFFF" fill-rule="nonzero"></path>
                    </g>
                </g>
            </g>
        </g>
    </g>
</svg>