<?xml version="1.0" encoding="UTF-8"?>
<svg width="88px" height="88px" viewBox="0 0 88 88" version="1.1" xmlns="http://www.w3.org/2000/svg" xmlns:xlink="http://www.w3.org/1999/xlink">
    <title>Group 5</title>
    <g id="Page-1" stroke="none" stroke-width="1" fill="none" fill-rule="evenodd">
        <g id="Option-1" transform="translate(-457.000000, -832.000000)">
            <g id="Hero" transform="translate(0.000000, 180.000000)">
                <g id="Group" transform="translate(281.000000, 464.000000)">
                    <g id="Group-5" transform="translate(176.000000, 188.000000)">
                        <circle id="Oval" fill="#1A98FE" cx="44" cy="44" r="44"></circle>
                        <path d="M31.8272727,62 C30.0825758,62 28.5960227,61.3881064 27.3676136,60.1643192 C26.1392045,58.9405321 25.525,57.4595722 25.525,55.7214397 L22,55.7214397 L22,31.1924883 C22,30.3411581 22.3204545,29.5962441 22.9613636,28.9577465 C23.6022727,28.3192488 24.35,28 25.2045455,28 L56.1284091,28 L56.1284091,36.885759 L61.7363636,36.885759 L69,46.5164319 L69,55.7214397 L65.2079545,55.7214397 C65.2079545,57.4595722 64.59375,58.9405321 63.3653409,60.1643192 C62.1369318,61.3881064 60.6503788,62 58.9056818,62 C57.1609848,62 55.6744318,61.3881064 54.4460227,60.1643192 C53.2176136,58.9405321 52.6034091,57.4595722 52.6034091,55.7214397 L38.1295455,55.7214397 C38.1295455,57.4595722 37.5153409,58.9405321 36.2869318,60.1643192 C35.0585227,61.3881064 33.5719697,62 31.8272727,62 Z M31.8548387,58.9777778 C32.6913237,58.9777778 33.4058213,58.6825032 33.9983315,58.091954 C34.5908417,57.5014049 34.8870968,56.789272 34.8870968,55.9555556 C34.8870968,55.1218391 34.5908417,54.4097063 33.9983315,53.8191571 C33.4058213,53.2286079 32.6913237,52.9333333 31.8548387,52.9333333 C31.0183537,52.9333333 30.3038561,53.2286079 29.7113459,53.8191571 C29.1188357,54.4097063 28.8225806,55.1218391 28.8225806,55.9555556 C28.8225806,56.789272 29.1188357,57.5014049 29.7113459,58.091954 C30.3038561,58.6825032 31.0183537,58.9777778 31.8548387,58.9777778 Z M25.0322581,52.1777778 L26.221207,52.1777778 C26.8336959,51.2281518 27.6083142,50.4719682 28.5450618,49.9092269 C29.4818095,49.3464856 30.5266435,49.065115 31.6795637,49.065115 C32.8324839,49.065115 33.886325,49.3552785 34.8410871,49.9356054 C35.7958491,50.5159324 36.5794746,51.2633232 37.1919635,52.1777778 L53.0806452,52.1777778 L53.0806452,31.0222222 L25.0322581,31.0222222 L25.0322581,52.1777778 Z M59.1451613,58.9777778 C59.9816463,58.9777778 60.6961439,58.6825032 61.2886541,58.091954 C61.8811643,57.5014049 62.1774194,56.789272 62.1774194,55.9555556 C62.1774194,55.1218391 61.8811643,54.4097063 61.2886541,53.8191571 C60.6961439,53.2286079 59.9816463,52.9333333 59.1451613,52.9333333 C58.3086763,52.9333333 57.5941787,53.2286079 57.0016685,53.8191571 C56.4091583,54.4097063 56.1129032,55.1218391 56.1129032,55.9555556 C56.1129032,56.789272 56.4091583,57.5014049 57.0016685,58.091954 C57.5941787,58.6825032 58.3086763,58.9777778 59.1451613,58.9777778 Z M56.1129032,47.6444444 L65.9677419,47.6444444 L60.0866285,40.0888889 L56.1129032,40.0888889 L56.1129032,47.6444444 Z" id="Shape" fill="#FFFFFF" fill-rule="nonzero"></path>
                    </g>
                </g>
            </g>
        </g>
    </g>
</svg>